PathFileType	4	(X/Y/Z)	pose_F01_0-96.trc
DataRate	CameraRate	NumFrames	NumMarkers	Units	OrigDataRate	OrigDataStartFrame	OrigNumFrames
30	30	9	21	m	30	84	96
Frame#	Time	CHip			RHip			RKnee			RAnkle			RBigToe			RSmallToe			RHeel			LHip			LKnee			LAnkle			LBigToe			LSmallToe			LHeel			Neck			Nose			RShoulder			RElbow			RWrist			LShoulder			LElbow			LWrist			
		X1	Y1	Z1	X2	Y2	Z2	X3	Y3	Z3	X4	Y4	Z4	X5	Y5	Z5	X6	Y6	Z6	X7	Y7	Z7	X8	Y8	Z8	X9	Y9	Z9	X10	Y10	Z10	X11	Y11	Z11	X12	Y12	Z12	X13	Y13	Z13	X14	Y14	Z14	X15	Y15	Z15	X16	Y16	Z16	X17	Y17	Z17	X18	Y18	Z18	X19	Y19	Z19	X20	Y20	Z20	X21	Y21	Z21	
84	2.8	-0.08736401718842314	1.8971273554610848	-0.7862262117151062	-0.10939015067182228	1.8950911888116782	-0.7231779169601068	-0.12764699520710038	1.7487407424371437	-0.7072395087589805	-0.14148468990185542	1.616559579457006	-0.6219661461175401	-0.14654808243388576	1.5783341645727014	-0.6666635584382935	-0.15728598843230654	1.5798487567298138	-0.6262699167682053	-0.1386873164668559	1.6096763794121536	-0.6113279194443039	-0.06723838616606462	1.8978500386389645	-0.8495892830014963	-0.07353092419552316	1.7526532698943715	-0.8319883866586135	-0.07910776307557224	1.621721338174591	-0.7698289954903275	-0.1270350911652105	1.590431016680005	-0.7624048324736105	-0.11795038972080783	1.5938058453068171	-0.767637063643224	-0.08957790444419769	1.6110135230755631	-0.7374339731604339	-0.08315141153148335	2.0434632568820916	-0.8036843322734779	-0.09690751447164057	2.101085447166855	-0.8127654555088739	-0.11472664450346666	2.041872302524529	-0.7130793172829298	-0.12723575679889582	1.9646728731483614	-0.6995381104635716	-0.11649259531372355	2.014033652378324	-0.7473745503938992	-0.05114613574019695	2.046095214212656	-0.8918860995384086	-0.05183462793393272	1.968610750203754	-0.904982015943061	-0.08527080011344904	2.018275597682907	-0.8441690524194158
85	2.8333333333333335	-0.08964353939014906	1.8969884668172456	-0.7837457078927229	-0.11140434433230134	1.8961974607953345	-0.7208897326939203	-0.1248168818732845	1.7511400168176479	-0.6981944180816648	-0.1414892963303028	1.616582249848218	-0.6220116490592538	-0.1473967534505775	1.5781330098456232	-0.6699043918206216	-0.15824237927717785	1.5799390043962047	-0.6295446869987059	-0.13847410462448573	1.608130027500629	-0.6115789321859265	-0.06872309128875655	1.8987787742686921	-0.8443786495172437	-0.07415059426047496	1.7531543594715526	-0.8234919087928931	-0.07913068878169854	1.6219789852091173	-0.769765617677742	-0.1270350911652105	1.590431016680005	-0.7624048324736105	-0.11795038972080783	1.5938058453068171	-0.767637063643224	-0.08746243671597788	1.6090712923444375	-0.7391094544175235	-0.08537562527769722	2.0443361959736674	-0.8012091954708468	-0.09896494580529623	2.1073127001154917	-0.8106424625970956	-0.11679585214067309	2.0443467737661654	-0.7110687484362309	-0.12933055504892899	1.969597830814561	-0.6981457258005185	-0.11421027103578733	2.0193029907326285	-0.7502935762329408	-0.05341874855287325	2.04841503657363	-0.8897896838054957	-0.05398389722558004	1.9723364923457143	-0.9026952963605746	-0.08495489488893614	2.0231270821552263	-0.844423574838268
86	2.8666666666666667	-0.09117222744865769	1.900804980144115	-0.7789480044501642	-0.110702662112415	1.9000451487830046	-0.7184755345894138	-0.12290402757053107	1.7550101105531064	-0.6923266086437392	-0.14115161126766296	1.6178654900397011	-0.6224964678644107	-0.14574750292280667	1.5792810852512045	-0.6632043941690076	-0.15515892859077599	1.579973109348526	-0.6284047209893828	-0.13814685310379146	1.6092945572668587	-0.612181604991906	-0.06878643617644593	1.9026397593175168	-0.8447368411339125	-0.07168694257383447	1.7590108599594805	-0.8150147176086308	-0.08135308933574271	1.6238895918775713	-0.7677948462514004	-0.1270350911652105	1.590431016680005	-0.7624048324736105	-0.11795038972080783	1.5938058453068171	-0.767637063643224	-0.08949137982406104	1.6103277088326695	-0.7372104010896737	-0.08682279105585185	2.046797520414773	-0.7962904896541387	-0.10044706348938028	2.1083612667770693	-0.8051448190248796	-0.1160251761135816	2.046749829575909	-0.708369786504787	-0.12832796685483916	1.9709063525335095	-0.6948700951046449	-0.11631530010773726	2.020502525696868	-0.7479170683699011	-0.05340934597697311	2.0511720697873037	-0.889890416324554	-0.05633893919371426	1.9745558240966272	-0.9007290169482735	-0.08739321450283975	2.022863531968927	-0.8417720542550766
87	2.9	-0.09336604940479354	1.9018575947606018	-0.7764826772182183	-0.11293024849137517	1.9000038859793615	-0.7158602884926991	-0.12646557594868188	1.7573504617905154	-0.6849617296656206	-0.141407252274528	1.6193115913704876	-0.6223093734984064	-0.14804129861551268	1.5797186200057132	-0.6607982005744794	-0.1566379241361103	1.58140288267057	-0.6226033511211926	-0.13868426452785662	1.6097912571246535	-0.6114880201488915	-0.07113850440526015	1.902554069957123	-0.8423353918768564	-0.07622745757924812	1.7617934111312004	-0.8104635317766452	-0.08079165722743693	1.6228853330821298	-0.7642690446823331	-0.1270350911652105	1.590431016680005	-0.7624048324736105	-0.11795038972080783	1.5938058453068171	-0.767637063643224	-0.08777219006981402	1.610844058643614	-0.7390160029456389	-0.08895710530863332	2.050362417174559	-0.7939837564612041	-0.10198862428682329	2.110613318158754	-0.7999921027442958	-0.11736102724742889	2.047853995488378	-0.7028058030664571	-0.12821346490605862	1.9741987735043123	-0.68375531006771	-0.11545498160986735	2.024191621170016	-0.7450139236365836	-0.05569708757058106	2.0537156449604077	-0.8877180403735375	-0.056178895493001965	1.977058514134443	-0.9005511723271012	-0.08942613526247732	2.0248655470627965	-0.8390934267613622
88	2.933333333333333	-0.09581085333778938	1.9005181380803622	-0.7738945845079748	-0.11531771027736948	1.8987334097775217	-0.7133449508444778	-0.12791768369588377	1.7545712720243671	-0.6788682167863337	-0.1416508951107121	1.6178932874005667	-0.6219063754429431	-0.1488125333157322	1.579226029651421	-0.6640824954702094	-0.1573121076718488	1.5798721477580941	-0.6261371341992693	-0.1374477348243492	1.6098617705268672	-0.6169796301946023	-0.07281119615974312	1.902403231299812	-0.8368865387029009	-0.07846471779092361	1.7570218622410623	-0.8038331513953302	-0.0827575399702014	1.623494023264384	-0.7624437187965525	-0.1270350911652105	1.590431016680005	-0.7624048324736105	-0.11795038972080783	1.5938058453068171	-0.767637063643224	-0.08966916350296325	1.6113054803748477	-0.7372883242830021	-0.09061305707455587	2.0503069999516663	-0.7892044075969932	-0.10344329417402735	2.1134630508642345	-0.7948471375379903	-0.11741776212817356	2.048987081373545	-0.7031326674196257	-0.1339083195835172	1.973944203003111	-0.6736635167947026	-0.12209601487048213	2.0206348462726234	-0.7262324954154201	-0.059744703060269584	2.0531300557180128	-0.880037426461046	-0.06266669705153927	1.9765998685746142	-0.8904246278591897	-0.09138951939264589	2.024139659731621	-0.8344562101544579
89	2.966666666666667	-0.0975137707076033	1.8991167901575008	-0.7682142996351065	-0.11895141661201057	1.8984831545338658	-0.7054516413046563	-0.12936177780102676	1.7516846942745143	-0.6727019797051763	-0.1427173702557502	1.6163803814442417	-0.6164895384124514	-0.14860062359865758	1.5774559346581831	-0.6643820950474965	-0.15800012885234868	1.57831363799332	-0.6296805265085141	-0.1382483146958451	1.6065362029579722	-0.6117276942470928	-0.07453971360057177	1.8997767037243987	-0.8310165380337599	-0.08007227291696566	1.7569954764412008	-0.798052678777242	-0.08071829783683852	1.6223621057480233	-0.7642033155101012	-0.1270350911652105	1.590431016680005	-0.7624048324736105	-0.11795038972080783	1.5938058453068171	-0.767637063643224	-0.08765581433978309	1.6127963626768587	-0.7396098059813135	-0.0928642964156317	2.0503220652998393	-0.7867166826379433	-0.10718072597094667	2.113513703293726	-0.7871576916078254	-0.11798471336549657	2.048484917369453	-0.6948154847969565	-0.1374733308883661	1.9750144155219078	-0.6661828477079532	-0.12368608923970631	2.0286596186711514	-0.7226840457578594	-0.06209553019170081	2.055391436177795	-0.8778666807086509	-0.06466092749660644	1.9764181266172725	-0.8851384385768694	-0.088858629155616	2.027579048045402	-0.8371254213639361
90	3.0	-0.09904557318275768	1.8989958975026315	-0.7627073639965539	-0.1203979499487103	1.898346789681867	-0.6999982028632076	-0.13103770638063703	1.7542873963603212	-0.6670921815539509	-0.14278900447494236	1.61647499202204	-0.6162534414900236	-0.14938719336576528	1.5792661938091275	-0.655253222111159	-0.1586360063613269	1.5797678932692123	-0.620472605666173	-0.1384639919480019	1.6081111396351695	-0.6115084495311482	-0.07850296681378635	1.8995572704098915	-0.8229836569636091	-0.0820983783223714	1.7569569598191366	-0.7921974493663775	-0.08065058610295267	1.624720596327953	-0.7645541245688439	-0.1270350911652105	1.590431016680005	-0.7624048324736105	-0.11795038972080783	1.5938058453068171	-0.767637063643224	-0.08955679084135322	1.6109542968825301	-0.7372935860281684	-0.09438092419777598	2.0504224039153423	-0.7812499891287454	-0.10794945073482912	2.1134632614873485	-0.778720409875599	-0.11737941551119614	2.0471714310682505	-0.6916965768640465	-0.13800546299305713	1.9734140763270165	-0.656945051590174	-0.12938447573681	2.027894039240567	-0.7015588552790104	-0.06395860225471248	2.054138141585617	-0.8726144135363888	-0.0669737703192375	1.9753246355683263	-0.8822739806557193	-0.09289828849465757	2.0217659828445393	-0.8406413784164587
91	3.033333333333333	-0.10285990934347401	1.8987880935688666	-0.7546458335631768	-0.1232767001267496	1.8978292700461967	-0.6888141585498706	-0.13010227173689912	1.754206507003334	-0.6554244246416221	-0.14332622095217548	1.616566343115252	-0.6156516471094261	-0.1531001963350989	1.5806164497621293	-0.638936351527175	-0.16202751366176463	1.5836830996264089	-0.6046185501952089	-0.13775445258106822	1.608625269528997	-0.616431270808156	-0.08250641525250164	1.8992351237556393	-0.8148751337095959	-0.0840750383581626	1.7571878768223264	-0.7899735006143637	-0.08068149189559198	1.6226636208755942	-0.7640885196413161	-0.1270350911652105	1.590431016680005	-0.7624048324736105	-0.11795038972080783	1.5938058453068171	-0.767637063643224	-0.08735820056059196	1.6113770191408943	-0.7395843031418132	-0.09603101664895847	2.0475818648654123	-0.7756396282045313	-0.11101001663843706	2.1137015760241993	-0.7680444865852015	-0.12166995486304451	2.044565328148561	-0.6867229648477129	-0.13587514074574122	1.97279861661326	-0.6383406532744669	-0.1369439890547615	2.024819194479357	-0.6764428490512912	-0.06625543914426663	2.053074470124292	-0.8697508660374939	-0.07150739288878567	1.9748480608953127	-0.8773066881493562	-0.10988813772766612	2.0192183672138646	-0.8268639592071365
92	3.066666666666667	-0.10653245145381503	1.8996956325471694	-0.746781619718275	-0.12462923696824868	1.900206276190039	-0.6834657865845422	-0.13397591966796657	1.751534716349534	-0.6468620825903163	-0.1435263216188562	1.6150226493676052	-0.6149509455003153	-0.16070415829186763	1.5825871056393817	-0.6186345888408156	-0.16408446660479684	1.5873975509187968	-0.5861202863426506	-0.1369678868420448	1.606672501821582	-0.6208151780391167	-0.08640352868722632	1.8989632311610223	-0.8069584748697943	-0.08542231113819201	1.754277998594005	-0.7843472734597332	-0.08051839058310865	1.6212914110502035	-0.7642627374925522	-0.1270350911652105	1.590431016680005	-0.7624048324736105	-0.11795038972080783	1.5938058453068171	-0.767637063643224	-0.08703813354786327	1.6094153033899772	-0.7397627753660658	-0.09753182754764976	2.0509786624872106	-0.7702882495756415	-0.11476585954705078	2.1144458222595017	-0.7609271079223785	-0.12291087433613926	2.047863283516355	-0.680936719638611	-0.14279314238168075	1.9709655851093533	-0.6226138225478975	-0.14011838912323674	2.02168971981157	-0.6559231183038718	-0.07024653806977388	2.0550515230462643	-0.862271097122553	-0.07355392699985591	1.9727856744956827	-0.8716996293554617	-0.11585226359343984	2.0230286494140937	-0.8164804582004351
